<svg width="21" height="8" viewBox="0 0 21 8" fill="none" xmlns="http://www.w3.org/2000/svg">
<path d="M3.768 0.304C4.624 0.304 5.332 0.532 5.892 0.987999C6.452 1.436 6.8 2.048 6.936 2.824H5.484C5.404 2.408 5.208 2.084 4.896 1.852C4.592 1.612 4.208 1.492 3.744 1.492C3.216 1.492 2.776 1.68 2.424 2.056C2.072 2.424 1.896 2.968 1.896 3.688C1.896 4.408 2.072 4.956 2.424 5.332C2.776 5.708 3.216 5.896 3.744 5.896C4.208 5.896 4.592 5.776 4.896 5.536C5.208 5.296 5.404 4.968 5.484 4.552H6.936C6.8 5.328 6.452 5.944 5.892 6.4C5.332 6.856 4.624 7.084 3.768 7.084C3.128 7.084 2.56 6.948 2.064 6.676C1.576 6.404 1.192 6.012 0.912 5.5C0.632 4.988 0.492 4.384 0.492 3.688C0.492 3 0.632 2.4 0.912 1.888C1.192 1.376 1.576 0.984 2.064 0.711999C2.56 0.44 3.128 0.304 3.768 0.304ZM10.7897 0.304C11.5657 0.304 12.1857 0.504 12.6497 0.904C13.1217 1.296 13.4097 1.824 13.5137 2.488H12.2177C12.1617 2.128 12.0057 1.84 11.7497 1.624C11.5017 1.4 11.1697 1.288 10.7537 1.288C10.4097 1.288 10.1417 1.372 9.94969 1.54C9.76569 1.7 9.67369 1.92 9.67369 2.2C9.67369 2.408 9.74169 2.576 9.87769 2.704C10.0137 2.832 10.1817 2.932 10.3817 3.004C10.5897 3.076 10.8817 3.156 11.2577 3.244C11.7537 3.356 12.1537 3.472 12.4577 3.592C12.7697 3.712 13.0337 3.904 13.2497 4.168C13.4737 4.424 13.5857 4.776 13.5857 5.224C13.5857 5.776 13.3737 6.224 12.9497 6.568C12.5337 6.912 11.9697 7.084 11.2577 7.084C10.4337 7.084 9.76569 6.892 9.25369 6.508C8.74969 6.124 8.44569 5.588 8.34169 4.9H9.67369C9.71369 5.26 9.87369 5.552 10.1537 5.776C10.4337 6 10.8017 6.112 11.2577 6.112C11.5857 6.112 11.8417 6.028 12.0257 5.86C12.2177 5.684 12.3137 5.464 12.3137 5.2C12.3137 4.968 12.2417 4.784 12.0977 4.648C11.9537 4.512 11.7737 4.408 11.5577 4.336C11.3417 4.256 11.0457 4.176 10.6697 4.096C10.1897 3.984 9.79769 3.872 9.49369 3.76C9.19769 3.648 8.94169 3.468 8.72569 3.22C8.51769 2.964 8.41369 2.62 8.41369 2.188C8.41369 1.628 8.62169 1.176 9.03769 0.832C9.46169 0.48 10.0457 0.304 10.7897 0.304ZM17.4895 0.304C18.2655 0.304 18.8855 0.504 19.3495 0.904C19.8215 1.296 20.1095 1.824 20.2135 2.488H18.9175C18.8615 2.128 18.7055 1.84 18.4495 1.624C18.2015 1.4 17.8695 1.288 17.4535 1.288C17.1095 1.288 16.8415 1.372 16.6495 1.54C16.4655 1.7 16.3735 1.92 16.3735 2.2C16.3735 2.408 16.4415 2.576 16.5775 2.704C16.7135 2.832 16.8815 2.932 17.0815 3.004C17.2895 3.076 17.5815 3.156 17.9575 3.244C18.4535 3.356 18.8535 3.472 19.1575 3.592C19.4695 3.712 19.7335 3.904 19.9495 4.168C20.1735 4.424 20.2855 4.776 20.2855 5.224C20.2855 5.776 20.0735 6.224 19.6495 6.568C19.2335 6.912 18.6695 7.084 17.9575 7.084C17.1335 7.084 16.4655 6.892 15.9535 6.508C15.4495 6.124 15.1455 5.588 15.0415 4.9H16.3735C16.4135 5.26 16.5735 5.552 16.8535 5.776C17.1335 6 17.5015 6.112 17.9575 6.112C18.2855 6.112 18.5415 6.028 18.7255 5.86C18.9175 5.684 19.0135 5.464 19.0135 5.2C19.0135 4.968 18.9415 4.784 18.7975 4.648C18.6535 4.512 18.4735 4.408 18.2575 4.336C18.0415 4.256 17.7455 4.176 17.3695 4.096C16.8895 3.984 16.4975 3.872 16.1935 3.76C15.8975 3.648 15.6415 3.468 15.4255 3.22C15.2175 2.964 15.1135 2.62 15.1135 2.188C15.1135 1.628 15.3215 1.176 15.7375 0.832C16.1615 0.48 16.7455 0.304 17.4895 0.304Z" fill="#6070FF"/>
</svg>
