<svg width="29" height="9" viewBox="0 0 29 9" fill="none" xmlns="http://www.w3.org/2000/svg">
<path d="M4.524 2.28C5.292 2.28 5.908 2.528 6.372 3.024C6.836 3.52 7.068 4.228 7.068 5.148V9H5.7V5.292C5.7 4.7 5.548 4.244 5.244 3.924C4.94 3.596 4.524 3.432 3.996 3.432C3.452 3.432 3.016 3.608 2.688 3.96C2.36 4.304 2.196 4.812 2.196 5.484V9H0.828V0.12H2.196V3.84C2.372 3.344 2.668 2.96 3.084 2.688C3.5 2.416 3.98 2.28 4.524 2.28ZM12.3518 7.812V9H11.5118C10.8078 9 10.2718 8.832 9.90384 8.496C9.54384 8.152 9.36384 7.584 9.36384 6.792V3.552H8.41584V2.388H9.36384V0.744H10.7438V2.388H12.3398V3.552H10.7438V6.816C10.7438 7.192 10.8118 7.452 10.9478 7.596C11.0918 7.74 11.3398 7.812 11.6918 7.812H12.3518ZM22.2613 2.28C23.0453 2.28 23.6693 2.528 24.1333 3.024C24.6053 3.52 24.8413 4.228 24.8413 5.148V9H23.4733V5.292C23.4733 4.716 23.3293 4.272 23.0413 3.96C22.7533 3.64 22.3573 3.48 21.8533 3.48C21.3173 3.48 20.8893 3.652 20.5693 3.996C20.2573 4.332 20.1013 4.828 20.1013 5.484V9H18.7333V5.292C18.7333 4.716 18.5893 4.272 18.3013 3.96C18.0133 3.64 17.6173 3.48 17.1133 3.48C16.5773 3.48 16.1493 3.652 15.8293 3.996C15.5173 4.332 15.3613 4.828 15.3613 5.484V9H13.9933V2.388H15.3613V3.768C15.5293 3.288 15.8093 2.92 16.2013 2.664C16.5933 2.408 17.0533 2.28 17.5813 2.28C18.1333 2.28 18.6093 2.416 19.0093 2.688C19.4173 2.96 19.7133 3.352 19.8973 3.864C20.0893 3.368 20.3973 2.98 20.8213 2.7C21.2453 2.42 21.7253 2.28 22.2613 2.28ZM28.1666 0.12V9H26.7986V0.12H28.1666Z" fill="#6070FF"/>
</svg>
