<svg width="187" height="17" viewBox="0 0 187 17" fill="none" xmlns="http://www.w3.org/2000/svg">
<path d="M14.1 1.425L11.415 12H9.75L7.305 3.36L4.86 12H3.195L0.495 1.425H2.01L4.035 10.41L6.54 1.425H8.055L10.56 10.38L12.6 1.425H14.1ZM17.0645 5.43C17.3345 4.86 17.7295 4.42 18.2495 4.11C18.7695 3.79 19.3895 3.63 20.1095 3.63V5.115H19.6895C18.9195 5.115 18.2895 5.315 17.7995 5.715C17.3095 6.105 17.0645 6.755 17.0645 7.665V12H15.6995V3.765H17.0645V5.43ZM21.2163 1.35C21.2163 1.1 21.3013 0.9 21.4713 0.749999C21.6413 0.589999 21.8663 0.51 22.1463 0.51C22.4263 0.51 22.6513 0.589999 22.8213 0.749999C22.9913 0.9 23.0763 1.1 23.0763 1.35C23.0763 1.6 22.9913 1.805 22.8213 1.965C22.6513 2.115 22.4263 2.19 22.1463 2.19C21.8663 2.19 21.6413 2.115 21.4713 1.965C21.3013 1.805 21.2163 1.6 21.2163 1.35ZM22.8213 3.765V12H21.4563V3.765H22.8213ZM28.9459 10.8V12H27.9259C27.0859 12 26.4559 11.8 26.0359 11.4C25.6259 11 25.4209 10.33 25.4209 9.39V4.95H24.1909V3.765H25.4209V1.71H26.8009V3.765H28.9309V4.95H26.8009V9.42C26.8009 9.95 26.8959 10.315 27.0859 10.515C27.2859 10.705 27.6259 10.8 28.1059 10.8H28.9459ZM38.1866 7.425C38.1866 7.715 38.1666 7.965 38.1266 8.175H31.5416C31.5716 9.115 31.8366 9.82 32.3366 10.29C32.8466 10.76 33.4666 10.995 34.1966 10.995C34.8566 10.995 35.4066 10.83 35.8466 10.5C36.2966 10.16 36.5716 9.71 36.6716 9.15H38.1266C38.0266 9.72 37.8016 10.23 37.4516 10.68C37.1116 11.13 36.6666 11.48 36.1166 11.73C35.5666 11.98 34.9466 12.105 34.2566 12.105C33.4666 12.105 32.7666 11.935 32.1566 11.595C31.5466 11.255 31.0666 10.77 30.7166 10.14C30.3766 9.5 30.2066 8.75 30.2066 7.89C30.2066 7.03 30.3766 6.28 30.7166 5.64C31.0666 5 31.5466 4.51 32.1566 4.17C32.7666 3.83 33.4666 3.66 34.2566 3.66C35.0566 3.66 35.7516 3.83 36.3416 4.17C36.9416 4.51 37.3966 4.965 37.7066 5.535C38.0266 6.105 38.1866 6.735 38.1866 7.425ZM36.8066 7.515C36.8366 6.905 36.7366 6.395 36.5066 5.985C36.2766 5.575 35.9616 5.27 35.5616 5.07C35.1616 4.87 34.7266 4.77 34.2566 4.77C33.5066 4.77 32.8766 5.005 32.3666 5.475C31.8566 5.935 31.5816 6.615 31.5416 7.515H36.8066ZM44.248 3.765L46.918 10.245L49.393 3.765H50.908L46.018 15.9H44.473L46.183 11.865L42.718 3.765H44.248ZM55.8945 3.66C56.6845 3.66 57.3895 3.83 58.0095 4.17C58.6395 4.51 59.1295 5 59.4795 5.64C59.8395 6.28 60.0195 7.03 60.0195 7.89C60.0195 8.75 59.8395 9.5 59.4795 10.14C59.1295 10.77 58.6395 11.255 58.0095 11.595C57.3895 11.935 56.6845 12.105 55.8945 12.105C55.1045 12.105 54.3945 11.935 53.7645 11.595C53.1445 11.255 52.6545 10.77 52.2945 10.14C51.9345 9.5 51.7545 8.75 51.7545 7.89C51.7545 7.03 51.9345 6.28 52.2945 5.64C52.6545 5 53.1445 4.51 53.7645 4.17C54.3945 3.83 55.1045 3.66 55.8945 3.66ZM55.8945 4.86C55.4045 4.86 54.9495 4.97 54.5295 5.19C54.1195 5.41 53.7845 5.75 53.5245 6.21C53.2745 6.66 53.1495 7.22 53.1495 7.89C53.1495 8.55 53.2745 9.11 53.5245 9.57C53.7845 10.02 54.1195 10.355 54.5295 10.575C54.9495 10.795 55.4045 10.905 55.8945 10.905C56.3845 10.905 56.8345 10.795 57.2445 10.575C57.6645 10.355 57.9995 10.02 58.2495 9.57C58.5095 9.11 58.6395 8.55 58.6395 7.89C58.6395 7.22 58.5095 6.66 58.2495 6.21C57.9995 5.75 57.6645 5.41 57.2445 5.19C56.8345 4.97 56.3845 4.86 55.8945 4.86ZM69.1181 3.765V12H67.7531V10.065C67.5431 10.735 67.1681 11.25 66.6281 11.61C66.0981 11.96 65.4781 12.135 64.7681 12.135C63.8181 12.135 63.0481 11.83 62.4581 11.22C61.8681 10.6 61.5731 9.715 61.5731 8.565V3.765H62.9381V8.43C62.9381 9.25 63.1481 9.885 63.5681 10.335C63.9881 10.775 64.5581 10.995 65.2781 10.995C66.0281 10.995 66.6281 10.755 67.0781 10.275C67.5281 9.785 67.7531 9.075 67.7531 8.145V3.765H69.1181ZM72.67 5.43C72.94 4.86 73.335 4.42 73.855 4.11C74.375 3.79 74.995 3.63 75.715 3.63V5.115H75.295C74.525 5.115 73.895 5.315 73.405 5.715C72.915 6.105 72.67 6.755 72.67 7.665V12H71.305V3.765H72.67V5.43ZM90.8929 3.63C91.8529 3.63 92.6229 3.94 93.2029 4.56C93.7929 5.17 94.0879 6.055 94.0879 7.215V12H92.7229V7.335C92.7229 6.525 92.5229 5.905 92.1229 5.475C91.7329 5.045 91.1929 4.83 90.5029 4.83C89.7829 4.83 89.2029 5.07 88.7629 5.55C88.3329 6.02 88.1179 6.715 88.1179 7.635V12H86.7529V7.335C86.7529 6.525 86.5529 5.905 86.1529 5.475C85.7529 5.045 85.2129 4.83 84.5329 4.83C83.8029 4.83 83.2179 5.07 82.7779 5.55C82.3479 6.02 82.1329 6.715 82.1329 7.635V12H80.7679V3.765H82.1329V5.64C82.3329 4.99 82.6879 4.495 83.1979 4.155C83.7179 3.805 84.3129 3.63 84.9829 3.63C85.6829 3.63 86.2879 3.81 86.7979 4.17C87.3179 4.52 87.6879 5.04 87.9079 5.73C88.1379 5.06 88.5229 4.545 89.0629 4.185C89.6029 3.815 90.2129 3.63 90.8929 3.63ZM103.782 7.425C103.782 7.715 103.762 7.965 103.722 8.175H97.1373C97.1673 9.115 97.4323 9.82 97.9323 10.29C98.4423 10.76 99.0623 10.995 99.7923 10.995C100.452 10.995 101.002 10.83 101.442 10.5C101.892 10.16 102.167 9.71 102.267 9.15H103.722C103.622 9.72 103.397 10.23 103.047 10.68C102.707 11.13 102.262 11.48 101.712 11.73C101.162 11.98 100.542 12.105 99.8523 12.105C99.0623 12.105 98.3623 11.935 97.7523 11.595C97.1423 11.255 96.6623 10.77 96.3123 10.14C95.9723 9.5 95.8023 8.75 95.8023 7.89C95.8023 7.03 95.9723 6.28 96.3123 5.64C96.6623 5 97.1423 4.51 97.7523 4.17C98.3623 3.83 99.0623 3.66 99.8523 3.66C100.652 3.66 101.347 3.83 101.937 4.17C102.537 4.51 102.992 4.965 103.302 5.535C103.622 6.105 103.782 6.735 103.782 7.425ZM102.402 7.515C102.432 6.905 102.332 6.395 102.102 5.985C101.872 5.575 101.557 5.27 101.157 5.07C100.757 4.87 100.322 4.77 99.8523 4.77C99.1023 4.77 98.4723 5.005 97.9623 5.475C97.4523 5.935 97.1773 6.615 97.1373 7.515H102.402ZM108.148 3.66C109.078 3.66 109.823 3.905 110.383 4.395C110.953 4.875 111.298 5.525 111.418 6.345H110.113C110.053 5.855 109.848 5.455 109.498 5.145C109.158 4.825 108.698 4.665 108.118 4.665C107.628 4.665 107.243 4.785 106.963 5.025C106.693 5.255 106.558 5.57 106.558 5.97C106.558 6.27 106.648 6.515 106.828 6.705C107.018 6.885 107.248 7.025 107.518 7.125C107.798 7.215 108.178 7.315 108.658 7.425C109.268 7.565 109.758 7.71 110.128 7.86C110.508 8 110.828 8.23 111.088 8.55C111.358 8.87 111.493 9.3 111.493 9.84C111.493 10.51 111.238 11.055 110.728 11.475C110.228 11.895 109.558 12.105 108.718 12.105C107.738 12.105 106.938 11.87 106.318 11.4C105.698 10.93 105.333 10.275 105.223 9.435H106.543C106.593 9.935 106.808 10.34 107.188 10.65C107.578 10.96 108.088 11.115 108.718 11.115C109.188 11.115 109.553 10.995 109.813 10.755C110.083 10.515 110.218 10.2 110.218 9.81C110.218 9.49 110.123 9.235 109.933 9.045C109.743 8.855 109.508 8.71 109.228 8.61C108.948 8.51 108.563 8.405 108.073 8.295C107.463 8.155 106.973 8.015 106.603 7.875C106.243 7.735 105.933 7.515 105.673 7.215C105.423 6.905 105.298 6.49 105.298 5.97C105.298 5.28 105.553 4.725 106.063 4.305C106.573 3.875 107.268 3.66 108.148 3.66ZM115.897 3.66C116.827 3.66 117.572 3.905 118.132 4.395C118.702 4.875 119.047 5.525 119.167 6.345H117.862C117.802 5.855 117.597 5.455 117.247 5.145C116.907 4.825 116.447 4.665 115.867 4.665C115.377 4.665 114.992 4.785 114.712 5.025C114.442 5.255 114.307 5.57 114.307 5.97C114.307 6.27 114.397 6.515 114.577 6.705C114.767 6.885 114.997 7.025 115.267 7.125C115.547 7.215 115.927 7.315 116.407 7.425C117.017 7.565 117.507 7.71 117.877 7.86C118.257 8 118.577 8.23 118.837 8.55C119.107 8.87 119.242 9.3 119.242 9.84C119.242 10.51 118.987 11.055 118.477 11.475C117.977 11.895 117.307 12.105 116.467 12.105C115.487 12.105 114.687 11.87 114.067 11.4C113.447 10.93 113.082 10.275 112.972 9.435H114.292C114.342 9.935 114.557 10.34 114.937 10.65C115.327 10.96 115.837 11.115 116.467 11.115C116.937 11.115 117.302 10.995 117.562 10.755C117.832 10.515 117.967 10.2 117.967 9.81C117.967 9.49 117.872 9.235 117.682 9.045C117.492 8.855 117.257 8.71 116.977 8.61C116.697 8.51 116.312 8.405 115.822 8.295C115.212 8.155 114.722 8.015 114.352 7.875C113.992 7.735 113.682 7.515 113.422 7.215C113.172 6.905 113.047 6.49 113.047 5.97C113.047 5.28 113.302 4.725 113.812 4.305C114.322 3.875 115.017 3.66 115.897 3.66ZM124.441 3.66C125.241 3.66 125.916 3.86 126.466 4.26C127.026 4.66 127.416 5.195 127.636 5.865V3.765H129.001V12H127.636V9.9C127.416 10.57 127.026 11.105 126.466 11.505C125.916 11.905 125.241 12.105 124.441 12.105C123.711 12.105 123.061 11.935 122.491 11.595C121.921 11.255 121.471 10.77 121.141 10.14C120.821 9.5 120.661 8.75 120.661 7.89C120.661 7.03 120.821 6.28 121.141 5.64C121.471 5 121.921 4.51 122.491 4.17C123.061 3.83 123.711 3.66 124.441 3.66ZM124.831 4.875C123.991 4.875 123.316 5.145 122.806 5.685C122.306 6.215 122.056 6.95 122.056 7.89C122.056 8.83 122.306 9.57 122.806 10.11C123.316 10.64 123.991 10.905 124.831 10.905C125.371 10.905 125.851 10.78 126.271 10.53C126.701 10.28 127.036 9.93 127.276 9.48C127.516 9.02 127.636 8.49 127.636 7.89C127.636 7.29 127.516 6.76 127.276 6.3C127.036 5.84 126.701 5.49 126.271 5.25C125.851 5 125.371 4.875 124.831 4.875ZM134.548 3.66C135.348 3.66 136.023 3.86 136.573 4.26C137.133 4.66 137.523 5.195 137.743 5.865V3.765H139.108V12.135C139.108 12.895 138.948 13.57 138.628 14.16C138.308 14.75 137.858 15.21 137.278 15.54C136.698 15.87 136.023 16.035 135.253 16.035C134.143 16.035 133.238 15.765 132.538 15.225C131.838 14.695 131.393 13.975 131.203 13.065H132.553C132.713 13.615 133.013 14.045 133.453 14.355C133.903 14.675 134.478 14.835 135.178 14.835C135.918 14.835 136.528 14.595 137.008 14.115C137.498 13.645 137.743 12.985 137.743 12.135V9.9C137.523 10.57 137.133 11.105 136.573 11.505C136.023 11.905 135.348 12.105 134.548 12.105C133.818 12.105 133.168 11.935 132.598 11.595C132.028 11.255 131.578 10.77 131.248 10.14C130.928 9.5 130.768 8.75 130.768 7.89C130.768 7.03 130.928 6.28 131.248 5.64C131.578 5 132.028 4.51 132.598 4.17C133.168 3.83 133.818 3.66 134.548 3.66ZM134.938 4.875C134.098 4.875 133.423 5.145 132.913 5.685C132.413 6.215 132.163 6.95 132.163 7.89C132.163 8.83 132.413 9.57 132.913 10.11C133.423 10.64 134.098 10.905 134.938 10.905C135.478 10.905 135.958 10.78 136.378 10.53C136.808 10.28 137.143 9.93 137.383 9.48C137.623 9.02 137.743 8.49 137.743 7.89C137.743 7.29 137.623 6.76 137.383 6.3C137.143 5.84 136.808 5.49 136.378 5.25C135.958 5 135.478 4.875 134.938 4.875ZM148.856 7.425C148.856 7.715 148.836 7.965 148.796 8.175H142.211C142.241 9.115 142.506 9.82 143.006 10.29C143.516 10.76 144.136 10.995 144.866 10.995C145.526 10.995 146.076 10.83 146.516 10.5C146.966 10.16 147.241 9.71 147.341 9.15H148.796C148.696 9.72 148.471 10.23 148.121 10.68C147.781 11.13 147.336 11.48 146.786 11.73C146.236 11.98 145.616 12.105 144.926 12.105C144.136 12.105 143.436 11.935 142.826 11.595C142.216 11.255 141.736 10.77 141.386 10.14C141.046 9.5 140.876 8.75 140.876 7.89C140.876 7.03 141.046 6.28 141.386 5.64C141.736 5 142.216 4.51 142.826 4.17C143.436 3.83 144.136 3.66 144.926 3.66C145.726 3.66 146.421 3.83 147.011 4.17C147.611 4.51 148.066 4.965 148.376 5.535C148.696 6.105 148.856 6.735 148.856 7.425ZM147.476 7.515C147.506 6.905 147.406 6.395 147.176 5.985C146.946 5.575 146.631 5.27 146.231 5.07C145.831 4.87 145.396 4.77 144.926 4.77C144.176 4.77 143.546 5.005 143.036 5.475C142.526 5.935 142.251 6.615 142.211 7.515H147.476ZM158.682 3.63C159.642 3.63 160.417 3.94 161.007 4.56C161.597 5.17 161.892 6.055 161.892 7.215V12H160.527V7.335C160.527 6.515 160.317 5.885 159.897 5.445C159.477 5.005 158.907 4.785 158.187 4.785C157.437 4.785 156.837 5.03 156.387 5.52C155.937 6 155.712 6.705 155.712 7.635V12H154.347V0.9H155.712V5.715C155.922 5.045 156.292 4.53 156.822 4.17C157.362 3.81 157.982 3.63 158.682 3.63ZM171.561 7.425C171.561 7.715 171.541 7.965 171.501 8.175H164.916C164.946 9.115 165.211 9.82 165.711 10.29C166.221 10.76 166.841 10.995 167.571 10.995C168.231 10.995 168.781 10.83 169.221 10.5C169.671 10.16 169.946 9.71 170.046 9.15H171.501C171.401 9.72 171.176 10.23 170.826 10.68C170.486 11.13 170.041 11.48 169.491 11.73C168.941 11.98 168.321 12.105 167.631 12.105C166.841 12.105 166.141 11.935 165.531 11.595C164.921 11.255 164.441 10.77 164.091 10.14C163.751 9.5 163.581 8.75 163.581 7.89C163.581 7.03 163.751 6.28 164.091 5.64C164.441 5 164.921 4.51 165.531 4.17C166.141 3.83 166.841 3.66 167.631 3.66C168.431 3.66 169.126 3.83 169.716 4.17C170.316 4.51 170.771 4.965 171.081 5.535C171.401 6.105 171.561 6.735 171.561 7.425ZM170.181 7.515C170.211 6.905 170.111 6.395 169.881 5.985C169.651 5.575 169.336 5.27 168.936 5.07C168.536 4.87 168.101 4.77 167.631 4.77C166.881 4.77 166.251 5.005 165.741 5.475C165.231 5.935 164.956 6.615 164.916 7.515H170.181ZM174.711 5.43C174.981 4.86 175.376 4.42 175.896 4.11C176.416 3.79 177.036 3.63 177.756 3.63V5.115H177.336C176.566 5.115 175.936 5.315 175.446 5.715C174.956 6.105 174.711 6.755 174.711 7.665V12H173.346V3.765H174.711V5.43ZM186.678 7.425C186.678 7.715 186.658 7.965 186.618 8.175H180.033C180.063 9.115 180.328 9.82 180.828 10.29C181.338 10.76 181.958 10.995 182.688 10.995C183.348 10.995 183.898 10.83 184.338 10.5C184.788 10.16 185.063 9.71 185.163 9.15H186.618C186.518 9.72 186.293 10.23 185.943 10.68C185.603 11.13 185.158 11.48 184.608 11.73C184.058 11.98 183.438 12.105 182.748 12.105C181.958 12.105 181.258 11.935 180.648 11.595C180.038 11.255 179.558 10.77 179.208 10.14C178.868 9.5 178.698 8.75 178.698 7.89C178.698 7.03 178.868 6.28 179.208 5.64C179.558 5 180.038 4.51 180.648 4.17C181.258 3.83 181.958 3.66 182.748 3.66C183.548 3.66 184.243 3.83 184.833 4.17C185.433 4.51 185.888 4.965 186.198 5.535C186.518 6.105 186.678 6.735 186.678 7.425ZM185.298 7.515C185.328 6.905 185.228 6.395 184.998 5.985C184.768 5.575 184.453 5.27 184.053 5.07C183.653 4.87 183.218 4.77 182.748 4.77C181.998 4.77 181.368 5.005 180.858 5.475C180.348 5.935 180.073 6.615 180.033 7.515H185.298Z" fill="#B3BAC5"/>
</svg>
