<svg width="135" height="93" viewBox="0 0 135 93" fill="none" xmlns="http://www.w3.org/2000/svg">
<path d="M19.88 24.84H9.28L7.52 30H0.32L10.68 1.92H18.56L28.92 30H21.64L19.88 24.84ZM18.12 19.64L14.6 9.24L11.04 19.64H18.12ZM45.4988 7.4C47.3388 7.4 48.9788 7.86667 50.4188 8.8C51.8854 9.70667 53.0321 11.0267 53.8588 12.76C54.7121 14.4667 55.1388 16.4933 55.1388 18.84C55.1388 21.16 54.7121 23.1867 53.8588 24.92C53.0321 26.6533 51.8854 27.9867 50.4188 28.92C48.9788 29.8267 47.3388 30.28 45.4988 30.28C43.7921 30.28 42.3254 29.8933 41.0988 29.12C39.8721 28.3467 38.9788 27.2933 38.4188 25.96V30H31.5788V0.4H38.4188V11.72C38.9788 10.3867 39.8721 9.33333 41.0988 8.56C42.3254 7.78667 43.7921 7.4 45.4988 7.4ZM43.2988 13.4C41.8588 13.4 40.6721 13.8933 39.7388 14.88C38.8321 15.84 38.3788 17.16 38.3788 18.84C38.3788 20.4933 38.8321 21.8133 39.7388 22.8C40.6721 23.7867 41.8588 24.28 43.2988 24.28C44.7654 24.28 45.9388 23.8 46.8188 22.84C47.7254 21.88 48.1788 20.5467 48.1788 18.84C48.1788 17.1333 47.7254 15.8 46.8188 14.84C45.9388 13.88 44.7654 13.4 43.2988 13.4ZM69.1281 7.4C71.3415 7.4 73.3148 7.86667 75.0481 8.8C76.8081 9.70667 78.1815 11.0267 79.1681 12.76C80.1815 14.4933 80.6881 16.52 80.6881 18.84C80.6881 21.16 80.1815 23.1867 79.1681 24.92C78.1815 26.6533 76.8081 27.9867 75.0481 28.92C73.3148 29.8267 71.3415 30.28 69.1281 30.28C66.9148 30.28 64.9281 29.8267 63.1681 28.92C61.4081 27.9867 60.0215 26.6533 59.0081 24.92C58.0215 23.1867 57.5281 21.16 57.5281 18.84C57.5281 16.52 58.0215 14.4933 59.0081 12.76C60.0215 11.0267 61.4081 9.70667 63.1681 8.8C64.9281 7.86667 66.9148 7.4 69.1281 7.4ZM69.1281 13.32C67.8215 13.32 66.7148 13.8 65.8081 14.76C64.9281 15.6933 64.4881 17.0533 64.4881 18.84C64.4881 20.6267 64.9281 21.9867 65.8081 22.92C66.7148 23.8533 67.8215 24.32 69.1281 24.32C70.4348 24.32 71.5281 23.8533 72.4081 22.92C73.2881 21.9867 73.7281 20.6267 73.7281 18.84C73.7281 17.0533 73.2881 15.6933 72.4081 14.76C71.5281 13.8 70.4348 13.32 69.1281 13.32ZM106.435 7.68V30H99.555V25.96C98.915 27.2667 97.955 28.3067 96.675 29.08C95.4217 29.8533 93.955 30.24 92.275 30.24C89.715 30.24 87.675 29.3867 86.155 27.68C84.6617 25.9733 83.915 23.6267 83.915 20.64V7.68H90.715V19.8C90.715 21.32 91.1017 22.5067 91.875 23.36C92.675 24.1867 93.7417 24.6 95.075 24.6C96.4617 24.6 97.555 24.16 98.355 23.28C99.155 22.4 99.555 21.1467 99.555 19.52V7.68H106.435ZM123.789 24.12V30H120.709C118.096 30 116.056 29.36 114.589 28.08C113.149 26.7733 112.429 24.6267 112.429 21.64V13.44H109.429V7.68H112.429V2.2H119.269V7.68H123.749V13.44H119.269V21.76C119.269 22.64 119.442 23.2533 119.789 23.6C120.162 23.9467 120.776 24.12 121.629 24.12H123.789ZM34.16 53.92V82H27.32V64.44L21.24 82H15.32L9.2 64.4V82H2.36V53.92H10.72L18.36 73.48L25.84 53.92H34.16ZM44.0434 59.68L49.4034 73.36L54.4034 59.68H61.9634L48.0434 92.64H40.5234L45.7634 81.16L36.4034 59.68H44.0434ZM72.355 59.4C75.1817 59.4 77.435 60.1067 79.115 61.52C80.8217 62.9333 81.8883 64.8 82.315 67.12H75.915C75.7283 66.2133 75.3017 65.5067 74.635 65C73.995 64.4667 73.1817 64.2 72.195 64.2C71.4217 64.2 70.835 64.3733 70.435 64.72C70.035 65.04 69.835 65.5067 69.835 66.12C69.835 66.8133 70.195 67.3333 70.915 67.68C71.6617 68.0267 72.8217 68.3733 74.395 68.72C76.1017 69.12 77.5017 69.5333 78.595 69.96C79.6883 70.36 80.635 71.0267 81.435 71.96C82.235 72.8933 82.635 74.1467 82.635 75.72C82.635 77 82.2883 78.1333 81.595 79.12C80.9017 80.1067 79.9017 80.88 78.595 81.44C77.2883 82 75.7417 82.28 73.955 82.28C70.9417 82.28 68.5283 81.6133 66.715 80.28C64.9017 78.9467 63.795 77.04 63.395 74.56H69.995C70.1017 75.52 70.5017 76.2533 71.195 76.76C71.915 77.2667 72.835 77.52 73.955 77.52C74.7283 77.52 75.315 77.3467 75.715 77C76.115 76.6267 76.315 76.1467 76.315 75.56C76.315 74.7867 75.9417 74.24 75.195 73.92C74.475 73.5733 73.2883 73.2133 71.635 72.84C69.9817 72.4933 68.6217 72.12 67.555 71.72C66.4883 71.32 65.5683 70.68 64.795 69.8C64.0217 68.8933 63.635 67.6667 63.635 66.12C63.635 64.12 64.395 62.5067 65.915 61.28C67.435 60.0267 69.5817 59.4 72.355 59.4ZM107.623 70.24C107.623 70.8 107.556 71.4133 107.423 72.08H91.9425C92.0225 73.76 92.4492 74.9733 93.2225 75.72C93.9958 76.44 94.9825 76.8 96.1825 76.8C97.1958 76.8 98.0358 76.5467 98.7025 76.04C99.3692 75.5333 99.8092 74.88 100.023 74.08H107.263C106.969 75.6533 106.329 77.0667 105.343 78.32C104.356 79.5467 103.103 80.52 101.583 81.24C100.063 81.9333 98.3692 82.28 96.5025 82.28C94.3158 82.28 92.3692 81.8267 90.6625 80.92C88.9825 79.9867 87.6625 78.6533 86.7025 76.92C85.7425 75.1867 85.2625 73.16 85.2625 70.84C85.2625 68.4933 85.7292 66.4667 86.6625 64.76C87.6225 63.0267 88.9558 61.7067 90.6625 60.8C92.3692 59.8667 94.3158 59.4 96.5025 59.4C98.7158 59.4 100.663 59.8533 102.343 60.76C104.023 61.6667 105.316 62.9467 106.223 64.6C107.156 66.2267 107.623 68.1067 107.623 70.24ZM100.703 69.2C100.729 67.7333 100.329 66.64 99.5025 65.92C98.7025 65.1733 97.7025 64.8 96.5025 64.8C95.2492 64.8 94.2092 65.1733 93.3825 65.92C92.5558 66.6667 92.0892 67.76 91.9825 69.2H100.703ZM118.028 52.4V82H111.188V52.4H118.028ZM133.711 56.64C132.591 56.64 131.777 56.88 131.271 57.36C130.764 57.84 130.484 58.6133 130.431 59.68H134.471V65.44H130.431V82H123.591V65.44H120.911V59.68H123.591V59.44C123.591 56.6667 124.391 54.5333 125.991 53.04C127.617 51.52 129.964 50.76 133.031 50.76C133.671 50.76 134.151 50.7733 134.471 50.8V56.68L133.711 56.64Z" fill="#172B4D"/>
</svg>
